# xmcd CD database file
#
# Track frame offsets:
#	150
#	21300
#	35665
#	53713
#	75057
#	100018
#	118952
#	138403
#	151832
#	167236
#	173761
#	194472
#
# Disc length: 2843 seconds
#
# Revision: 0
# Processed by: cddbd v1.5.1PL0 Copyright (c) Steve Scherf et al.
# Submitted via: CDex 1.51
#
DISCID=940b190c
DTITLE=Mark Sterling - Mark Sterling
DYEAR=1997
DGENRE=Blues
TTITLE0=Afraid To Look
TTITLE1=Walking And Looking
TTITLE2=Blinding Me
TTITLE3=Start Talkin'
TTITLE4=Preaching Blues
TTITLE5=Deep Down
TTITLE6=Blues Is A Woman
TTITLE7=No Use In Running
TTITLE8=Crossroads
TTITLE9=Harp Thing
TTITLE10=Bad Luck
TTITLE11=Time For Movin' On
EXTD=YEAR: 1997
EXTT0=
EXTT1=
EXTT2=
EXTT3=
EXTT4=
EXTT5=
EXTT6=
EXTT7=
EXTT8=
EXTT9=
EXTT10=
EXTT11=
PLAYORDER=
